<?xml version="1.0" encoding="UTF-8"?>
<svg width="101px" height="100px" viewBox="0 0 101 100" version="1.1" xmlns="http://www.w3.org/2000/svg" xmlns:xlink="http://www.w3.org/1999/xlink">
    <!-- Generator: Sketch 47.1 (45422) - http://www.bohemiancoding.com/sketch -->
    <title>LOGO </title>
    <desc>Created with Sketch.</desc>
    <defs></defs>
    <g id="Page-1" stroke="none" stroke-width="1" fill="none" fill-rule="evenodd">
        <g id="LOGO-">
            <path d="M45.7849226,1.89759036 L49.5123687,5.58835341 L45.4148144,9.63554217 L41.6873682,5.9437751 L6.11743268,41.1746988 L9.84487882,44.8654618 L5.7594924,48.9086345 L2.03204626,45.2178715 L0,47.2259036 L53.2986266,100 L55.3286449,97.9949799 L51.3182941,94.0230924 L55.4117925,89.9849398 L59.4170733,93.9508032 L94.9941068,58.7208835 L90.986798,54.7600402 L95.0772544,50.7038153 L99.0805072,54.6676707 L101,52.7761044 L47.7003594,0 L45.7849226,1.89759036 Z M53,87.8290209 L48.8232558,92 L43,86.1678741 L47.1715762,82 L53,87.8290209 Z M44,78.8337646 L39.8241986,83 L34,77.1672705 L38.1737332,73 L44,78.8337646 Z M36,70.8315223 L31.8233347,75 L26,69.1736521 L30.1714936,65 L36,70.8315223 Z M27,61.8240961 L22.8198758,66 L17,60.1707241 L21.1708075,56 L27,61.8240961 Z M19,53.83411 L14.8379888,58 L9,52.1731387 L13.178564,48 L19,53.83411 Z M92,47.8260959 L87.8340232,52 L82,46.1687345 L86.1711507,42 L92,47.8260959 Z M84,39.8282462 L79.8315223,44 L74,38.1707191 L78.1788265,34 L84,39.8282462 Z M75,30.8285064 L70.8285064,35 L65,29.1704592 L69.1766653,25 L75,30.8285064 Z M67,22.8240166 L62.8299679,27 L57,21.1780538 L61.1793518,17 L67,22.8240166 Z M58,13.8256644 L53.8223004,18 L48,12.1753697 L52.1704592,8 L58,13.8256644 Z" id="Shape" fill="#000000" fill-rule="nonzero"></path>
            <text id="Cinema-City" font-family="Chalkduster" font-size="12" font-weight="normal">
                <tspan x="17.3425414" y="47" fill="#FFFFFF">Cinema</tspan>
                <tspan x="68.6574586" y="47" fill="#F8E71C"></tspan>
                <tspan x="8.42541436" y="65" fill="#FFFFFF">       City</tspan>
            </text>
        </g>
    </g>
</svg>